<svg width="48" height="48" viewBox="0 0 48 48" fill="none" xmlns="http://www.w3.org/2000/svg">
<rect width="48" height="48" fill="#0A0A0A"/>
<path d="M2.52992 24.55V10.972H7.6169C9.27432 10.972 10.5301 11.2652 11.3843 11.8517C12.2513 12.4382 12.6848 13.3689 12.6848 14.6438C12.6848 15.2175 12.5636 15.7211 12.3214 16.1546C12.0919 16.5753 11.7477 16.9068 11.2887 17.1491C10.8425 17.3913 10.3006 17.5252 9.66317 17.5507L9.64405 17.5124C10.8042 17.5507 11.6967 17.8694 12.3214 18.4686C12.9461 19.0551 13.2585 19.8392 13.2585 20.8209C13.2585 22.0703 12.825 23.0074 11.9581 23.6321C11.1038 24.2441 9.88628 24.55 8.30537 24.55H2.52992ZM5.01604 22.4464H8.19062C8.96833 22.4464 9.5803 22.287 10.0265 21.9683C10.4855 21.6496 10.715 21.1779 10.715 20.5531C10.715 19.9284 10.4919 19.4503 10.0457 19.1188C9.59942 18.7874 8.98108 18.6216 8.19062 18.6216H5.01604V22.4464ZM5.01604 16.671H7.54041C8.35636 16.671 8.99383 16.518 9.45281 16.212C9.91178 15.906 10.1413 15.4598 10.1413 14.8733C10.1413 14.2613 9.91816 13.8087 9.47193 13.5155C9.0257 13.2223 8.38186 13.0757 7.54041 13.0757H5.01604V16.671ZM14.6841 24.55V14.3378H16.979L17.0746 17.1682L16.8643 17.1299C17.0172 16.1482 17.3041 15.4407 17.7248 15.0072C18.1583 14.5609 18.7448 14.3378 19.4842 14.3378H20.4213V16.4415H19.4651C18.9424 16.4415 18.5089 16.518 18.1647 16.671C17.8205 16.824 17.5591 17.0662 17.3806 17.3977C17.2149 17.7164 17.132 18.1371 17.132 18.6599V24.55H14.6841ZM25.3962 24.7795C24.3763 24.7795 23.4902 24.5628 22.738 24.1293C21.9858 23.6831 21.4057 23.0584 20.9977 22.2552C20.5897 21.452 20.3858 20.5149 20.3858 19.4439C20.3858 18.373 20.5897 17.4423 20.9977 16.6518C21.4057 15.8486 21.9794 15.2239 22.7189 14.7777C23.4711 14.3315 24.3444 14.1083 25.3389 14.1083C26.3078 14.1083 27.1557 14.3251 27.8824 14.7586C28.6218 15.192 29.1892 15.8168 29.5844 16.6327C29.9796 17.4487 30.1772 18.4304 30.1772 19.5778V20.1324H22.9292C22.9802 21.0249 23.2225 21.7006 23.656 22.1595C24.1022 22.6058 24.6887 22.8289 25.4154 22.8289C25.9636 22.8289 26.4162 22.7078 26.7732 22.4655C27.1429 22.2105 27.3979 21.8599 27.5381 21.4137L30.0434 21.5667C29.7629 22.5612 29.2083 23.3452 28.3796 23.919C27.5636 24.4927 26.5692 24.7795 25.3962 24.7795ZM22.9292 18.4877H27.6529C27.6019 17.659 27.366 17.0471 26.9453 16.6518C26.5246 16.2439 25.9891 16.0399 25.3389 16.0399C24.6887 16.0399 24.1468 16.2502 23.7133 16.671C23.2926 17.0917 23.0312 17.6973 22.9292 18.4877ZM33.1128 24.55L30.0338 14.3378H32.5391L34.528 21.7771L36.5742 14.3378H38.7161L40.7815 21.7771L42.7704 14.3378H45.2756L42.1967 24.55H39.6723L37.6452 17.7037L35.6371 24.55H33.1128Z" fill="#A1A1A1"/>
<path d="M2.52992 37.4498V23.8718H8.20975C9.19145 23.8718 10.0393 24.0375 10.7532 24.369C11.4672 24.7005 12.0218 25.1722 12.417 25.7842C12.8123 26.3962 13.0099 27.1165 13.0099 27.9452C13.0099 28.5699 12.876 29.1245 12.6083 29.609C12.3405 30.0935 11.9772 30.4823 11.5182 30.7756C11.072 31.0688 10.5747 31.2473 10.0265 31.311L9.93091 31.1198C10.8106 31.1198 11.4863 31.3174 11.9581 31.7126C12.4425 32.1079 12.7166 32.7135 12.7804 33.5294L13.1246 37.4498H10.6002L10.3134 33.8928C10.2751 33.3573 10.103 32.9621 9.79704 32.7071C9.49105 32.4521 8.98108 32.3246 8.26712 32.3246H5.01604V37.4498H2.52992ZM5.01604 30.1445H8.05676C8.80897 30.1445 9.39544 29.966 9.81616 29.609C10.2369 29.252 10.4473 28.7484 10.4473 28.0982C10.4473 27.4352 10.2305 26.9253 9.79704 26.5683C9.37631 26.2113 8.75797 26.0328 7.94201 26.0328H5.01604V30.1445ZM17.611 37.6793C16.54 37.6793 15.6795 37.4371 15.0292 36.9526C14.379 36.4554 14.0539 35.7669 14.0539 34.8872C14.0539 34.0075 14.328 33.319 14.8763 32.8218C15.4245 32.3246 16.2596 31.9676 17.3815 31.7509L20.7664 31.0815C20.7664 30.3548 20.6007 29.813 20.2692 29.456C19.9377 29.0863 19.4469 28.9014 18.7967 28.9014C18.2102 28.9014 17.7449 29.0416 17.4006 29.3221C17.0691 29.5899 16.8396 29.9787 16.7122 30.4887L14.226 30.374C14.43 29.2903 14.9272 28.4616 15.7177 27.8878C16.5082 27.3014 17.5345 27.0081 18.7967 27.0081C20.2501 27.0081 21.3465 27.3779 22.086 28.1173C22.8382 28.844 23.2143 29.8895 23.2143 31.2537V34.9637C23.2143 35.2314 23.2589 35.4163 23.3482 35.5183C23.4502 35.6203 23.5968 35.6713 23.788 35.6713H24.1131V37.4498C24.0366 37.4753 23.9092 37.4945 23.7307 37.5072C23.5649 37.52 23.3928 37.5263 23.2143 37.5263C22.7936 37.5263 22.4175 37.4626 22.086 37.3351C21.7545 37.1948 21.4995 36.959 21.321 36.6275C21.1425 36.2833 21.0533 35.8179 21.0533 35.2314L21.2637 35.3844C21.1617 35.8307 20.9386 36.2323 20.5943 36.5892C20.2628 36.9335 19.8421 37.2012 19.3321 37.3925C18.8222 37.5837 18.2485 37.6793 17.611 37.6793ZM18.1082 35.9008C18.6564 35.9008 19.1282 35.7924 19.5234 35.5757C19.9186 35.3589 20.2246 35.0593 20.4413 34.6768C20.6581 34.2944 20.7664 33.8418 20.7664 33.319V32.7453L18.1273 33.2808C17.5791 33.3955 17.1839 33.5677 16.9416 33.7971C16.7122 34.0139 16.5974 34.3007 16.5974 34.6577C16.5974 35.053 16.7249 35.3589 16.9799 35.5757C17.2476 35.7924 17.6237 35.9008 18.1082 35.9008ZM28.5075 37.4498C27.4875 37.4498 26.7353 37.214 26.2508 36.7422C25.7791 36.2705 25.5433 35.5311 25.5433 34.5239V24.8471H27.9911V34.2944C27.9911 34.7661 28.0931 35.0976 28.2971 35.2888C28.5011 35.4673 28.8198 35.5566 29.2533 35.5566H30.6876V37.4498H28.5075ZM23.9368 29.1309V27.2376H30.6876V29.1309H23.9368ZM31.7179 37.4498V27.2376H34.1658V37.4498H31.7179ZM31.6797 25.8798V23.6997H34.2232V25.8798H31.6797ZM40.3388 37.6793C39.3316 37.6793 38.4455 37.4626 37.6806 37.0291C36.9284 36.5829 36.3419 35.9582 35.9212 35.1549C35.5132 34.3517 35.3092 33.4147 35.3092 32.3437C35.3092 31.26 35.5132 30.323 35.9212 29.5325C36.3419 28.7293 36.9284 28.1109 37.6806 27.6775C38.4455 27.2312 39.3316 27.0081 40.3388 27.0081C41.346 27.0081 42.2257 27.2312 42.9779 27.6775C43.7301 28.1109 44.3102 28.7293 44.7182 29.5325C45.1389 30.323 45.3493 31.26 45.3493 32.3437C45.3493 33.4147 45.1389 34.3517 44.7182 35.1549C44.3102 35.9582 43.7301 36.5829 42.9779 37.0291C42.2257 37.4626 41.346 37.6793 40.3388 37.6793ZM40.3388 35.6904C41.1293 35.6904 41.7349 35.3972 42.1556 34.8107C42.5891 34.2242 42.8058 33.4019 42.8058 32.3437C42.8058 31.2983 42.5891 30.4823 42.1556 29.8959C41.7349 29.2966 41.1293 28.997 40.3388 28.997C39.5484 28.997 38.9364 29.2966 38.5029 29.8959C38.0694 30.4823 37.8527 31.2983 37.8527 32.3437C37.8527 33.4019 38.0694 34.2242 38.5029 34.8107C38.9364 35.3972 39.5484 35.6904 40.3388 35.6904Z" fill="white"/>
</svg>
